{"asset":{"generator":"glTF-Transform v4.2.1","version":"2.0"},"accessors":[{"type":"SCALAR","componentType":5126,"count":3,"max":[10.416666984558105],"min":[0.0416666679084301],"normalized":false,"byteOffset":0,"bufferView":0},{"type":"VEC4","componentType":5122,"count":3,"normalized":true,"byteOffset":0,"bufferView":1},{"type":"SCALAR","componentType":5123,"count":74118,"normalized":false,"byteOffset":0,"bufferView":2},{"type":"VEC3","componentType":5120,"count":21287,"normalized":true,"byteOffset":0,"bufferView":3},{"type":"SCALAR","componentType":5123,"count":26952,"normalized":false,"byteOffset":148236,"bufferView":2},{"type":"VEC3","componentType":5120,"count":12357,"normalized":true,"byteOffset":0,"bufferView":4},{"type":"VEC2","componentType":5126,"count":12357,"normalized":false,"byteOffset":0,"bufferView":5},{"type":"VEC4","componentType":5121,"count":12357,"normalized":true,"byteOffset":0,"bufferView":6},{"type":"SCALAR","componentType":5123,"count":144,"normalized":false,"byteOffset":202140,"bufferView":2},{"type":"VEC3","componentType":5120,"count":48,"normalized":true,"byteOffset":0,"bufferView":7},{"type":"VEC4","componentType":5121,"count":48,"normalized":true,"byteOffset":0,"bufferView":8},{"type":"SCALAR","componentType":5123,"count":33978,"normalized":false,"byteOffset":202428,"bufferView":2},{"type":"VEC3","componentType":5120,"count":10677,"normalized":true,"byteOffset":0,"bufferView":9},{"type":"SCALAR","componentType":5123,"count":10416,"normalized":false,"byteOffset":270384,"bufferView":2},{"type":"VEC3","componentType":5120,"count":4629,"normalized":true,"byteOffset":0,"bufferView":10},{"type":"VEC2","componentType":5126,"count":4629,"normalized":false,"byteOffset":0,"bufferView":11},{"type":"VEC3","componentType":5122,"count":21287,"max":[6444,32767,9865],"min":[-6444,-32767,-9865],"normalized":true,"byteOffset":0,"bufferView":12},{"type":"VEC2","componentType":5123,"count":21287,"normalized":true,"byteOffset":0,"bufferView":13},{"type":"VEC3","componentType":5122,"count":12357,"max":[16582,18690,32767],"min":[-16582,-18690,-32767],"normalized":true,"byteOffset":0,"bufferView":14},{"type":"VEC3","componentType":5122,"count":48,"max":[32767,628,1656],"min":[-32767,-628,-1656],"normalized":true,"byteOffset":0,"bufferView":15},{"type":"VEC3","componentType":5122,"count":10677,"max":[32767,28407,1284],"min":[-32767,-28407,-1284],"normalized":true,"byteOffset":0,"bufferView":16},{"type":"VEC2","componentType":5123,"count":10677,"normalized":true,"byteOffset":0,"bufferView":17},{"type":"VEC3","componentType":5122,"count":4629,"max":[1740,32767,1740],"min":[-1740,-32767,-1740],"normalized":true,"byteOffset":0,"bufferView":18}],"bufferViews":[{"buffer":1,"byteOffset":0,"byteLength":12,"extensions":{"EXT_meshopt_compression":{"buffer":0,"byteOffset":0,"byteLength":48,"mode":"ATTRIBUTES","byteStride":4,"count":3}}},{"buffer":1,"byteOffset":12,"byteLength":24,"extensions":{"EXT_meshopt_compression":{"buffer":0,"byteOffset":48,"byteLength":80,"mode":"ATTRIBUTES","filter":"QUATERNION","byteStride":8,"count":3}}},{"buffer":1,"byteOffset":36,"byteLength":291216,"target":34963,"extensions":{"EXT_meshopt_compression":{"buffer":0,"byteOffset":128,"byteLength":51532,"mode":"TRIANGLES","byteStride":2,"count":145608}}},{"buffer":1,"byteOffset":291252,"byteLength":85148,"target":34962,"byteStride":4,"extensions":{"EXT_meshopt_compression":{"buffer":0,"byteOffset":51660,"byteLength":30341,"mode":"ATTRIBUTES","filter":"OCTAHEDRAL","byteStride":4,"count":21287}}},{"buffer":1,"byteOffset":376400,"byteLength":49428,"target":34962,"byteStride":4,"extensions":{"EXT_meshopt_compression":{"buffer":0,"byteOffset":82004,"byteLength":13853,"mode":"ATTRIBUTES","filter":"OCTAHEDRAL","byteStride":4,"count":12357}}},{"buffer":1,"byteOffset":425828,"byteLength":98856,"target":34962,"byteStride":8,"extensions":{"EXT_meshopt_compression":{"buffer":0,"byteOffset":95860,"byteLength":68654,"mode":"ATTRIBUTES","byteStride":8,"count":12357}}},{"buffer":1,"byteOffset":524684,"byteLength":49428,"target":34962,"byteStride":4,"extensions":{"EXT_meshopt_compression":{"buffer":0,"byteOffset":164516,"byteLength":809,"mode":"ATTRIBUTES","byteStride":4,"count":12357}}},{"buffer":1,"byteOffset":574112,"byteLength":192,"target":34962,"byteStride":4,"extensions":{"EXT_meshopt_compression":{"buffer":0,"byteOffset":165328,"byteLength":103,"mode":"ATTRIBUTES","filter":"OCTAHEDRAL","byteStride":4,"count":48}}},{"buffer":1,"byteOffset":574304,"byteLength":192,"target":34962,"byteStride":4,"extensions":{"EXT_meshopt_compression":{"buffer":0,"byteOffset":165432,"byteLength":37,"mode":"ATTRIBUTES","byteStride":4,"count":48}}},{"buffer":1,"byteOffset":574496,"byteLength":42708,"target":34962,"byteStride":4,"extensions":{"EXT_meshopt_compression":{"buffer":0,"byteOffset":165472,"byteLength":16122,"mode":"ATTRIBUTES","filter":"OCTAHEDRAL","byteStride":4,"count":10677}}},{"buffer":1,"byteOffset":617204,"byteLength":18516,"target":34962,"byteStride":4,"extensions":{"EXT_meshopt_compression":{"buffer":0,"byteOffset":181596,"byteLength":6929,"mode":"ATTRIBUTES","filter":"OCTAHEDRAL","byteStride":4,"count":4629}}},{"buffer":1,"byteOffset":635720,"byteLength":37032,"target":34962,"byteStride":8,"extensions":{"EXT_meshopt_compression":{"buffer":0,"byteOffset":188528,"byteLength":25351,"mode":"ATTRIBUTES","byteStride":8,"count":4629}}},{"buffer":1,"byteOffset":672752,"byteLength":170296,"target":34962,"byteStride":8,"extensions":{"EXT_meshopt_compression":{"buffer":0,"byteOffset":213880,"byteLength":81347,"mode":"ATTRIBUTES","byteStride":8,"count":21287}}},{"buffer":1,"byteOffset":843048,"byteLength":85148,"target":34962,"byteStride":4,"extensions":{"EXT_meshopt_compression":{"buffer":0,"byteOffset":295228,"byteLength":59318,"mode":"ATTRIBUTES","byteStride":4,"count":21287}}},{"buffer":1,"byteOffset":928196,"byteLength":98856,"target":34962,"byteStride":8,"extensions":{"EXT_meshopt_compression":{"buffer":0,"byteOffset":354548,"byteLength":48761,"mode":"ATTRIBUTES","byteStride":8,"count":12357}}},{"buffer":1,"byteOffset":1027052,"byteLength":384,"target":34962,"byteStride":8,"extensions":{"EXT_meshopt_compression":{"buffer":0,"byteOffset":403312,"byteLength":258,"mode":"ATTRIBUTES","byteStride":8,"count":48}}},{"buffer":1,"byteOffset":1027436,"byteLength":85416,"target":34962,"byteStride":8,"extensions":{"EXT_meshopt_compression":{"buffer":0,"byteOffset":403572,"byteLength":39610,"mode":"ATTRIBUTES","byteStride":8,"count":10677}}},{"buffer":1,"byteOffset":1112852,"byteLength":42708,"target":34962,"byteStride":4,"extensions":{"EXT_meshopt_compression":{"buffer":0,"byteOffset":443184,"byteLength":30735,"mode":"ATTRIBUTES","byteStride":4,"count":10677}}},{"buffer":1,"byteOffset":1155560,"byteLength":37032,"target":34962,"byteStride":8,"extensions":{"EXT_meshopt_compression":{"buffer":0,"byteOffset":473920,"byteLength":14710,"mode":"ATTRIBUTES","byteStride":8,"count":4629}}}],"samplers":[{"magFilter":9729,"minFilter":9987,"wrapS":10497,"wrapT":10497}],"textures":[{"sampler":0,"extensions":{"EXT_texture_webp":{"source":0}}},{"sampler":0,"extensions":{"EXT_texture_webp":{"source":1}}}],"images":[{"mimeType":"image/webp","uri":"normal_1.webp"},{"mimeType":"image/webp","uri":"specular_1.webp"}],"buffers":[{"uri":"turbin-v1.bin","byteLength":488632},{"byteLength":1192592,"extensions":{"EXT_meshopt_compression":{"fallback":true}}}],"materials":[{"name":"Matal solid paint white","doubleSided":true,"pbrMetallicRoughness":{"baseColorFactor":[0.6038273388475408,0.6038273388475408,0.6038273388475408,1],"roughnessFactor":0.2588235294117647,"metallicFactor":0},"normalTexture":{"index":0},"extensions":{"KHR_materials_ior":{"ior":1.4500000476837158},"KHR_materials_specular":{"specularTexture":{"index":1}}}},{"name":"Lights","doubleSided":true,"pbrMetallicRoughness":{"baseColorFactor":[0.800000011920929,0.800000011920929,0.800000011920929,1],"roughnessFactor":0.5,"metallicFactor":0},"emissiveFactor":[1,0,0.009290562942624092],"extensions":{"KHR_materials_emissive_strength":{"emissiveStrength":50},"KHR_materials_ior":{"ior":1.4500000476837158},"KHR_materials_transmission":{"transmissionFactor":1},"KHR_materials_volume":{}}}],"meshes":[{"primitives":[{"attributes":{"NORMAL":3,"POSITION":16,"TEXCOORD_0":17},"mode":4,"material":0,"indices":2}]},{"primitives":[{"attributes":{"NORMAL":5,"TEXCOORD_0":6,"COLOR_0":7,"POSITION":18},"mode":4,"material":0,"indices":4}]},{"primitives":[{"attributes":{"NORMAL":9,"COLOR_0":10,"POSITION":19},"mode":4,"material":1,"indices":8}]},{"primitives":[{"attributes":{"NORMAL":12,"POSITION":20,"TEXCOORD_0":21},"mode":4,"material":0,"indices":11}]},{"primitives":[{"attributes":{"NORMAL":14,"TEXCOORD_0":15,"POSITION":22},"mode":4,"material":0,"indices":13}]}],"nodes":[{"name":"Foundation001","extras":{"name":"Foundation.001"},"children":[3,5]},{"name":"Cube011","translation":[-0.000003906359978600449,14.552602860536986,-0.7078329898465796],"scale":[1.1605057230300275,1.1605057230300275,1.1605057230300275],"mesh":1},{"name":"Cube011_1","translation":[-0.000003906359978600449,15.175587824719955,-1.302114669172738],"scale":[0.5088552390279943,0.5088552390279943,0.5088552390279943],"mesh":2},{"name":"Rotor001","extras":{"name":"Rotor.001"},"translation":[-0.000003814697265625,14.389877319335938,0.4355487823486328],"rotation":[-0.0261769350618124,0,0,0.9996573328971863],"scale":[0.09611532092094421,0.09611528366804123,0.09611526131629944],"children":[6]},{"name":"Tower001","extras":{"name":"Tower.001"},"translation":[-0.000003814697265625,6.965389822368024,0],"scale":[6.96669397199571,6.96669397199571,6.96669397199571],"mesh":4},{"translation":[0.010062426328659058,-2.4636076539754868,-0.3097511827945709],"scale":[2.8688513189554214,2.8688513189554214,2.8688513189554214],"mesh":0},{"translation":[0.040515899658203125,29.357223510742188,3.9995137378573418],"scale":[102.16633987426758,102.16633987426758,102.16633987426758],"mesh":3}],"animations":[{"name":"Rotor.001","samplers":[{"input":0,"output":1,"interpolation":"LINEAR"}],"channels":[{"sampler":0,"target":{"node":3,"path":"rotation"}}]}],"scenes":[{"name":"Scene","nodes":[0,1,2,4]}],"scene":0,"extensionsUsed":["EXT_meshopt_compression","EXT_texture_webp","KHR_materials_emissive_strength","KHR_materials_ior","KHR_materials_specular","KHR_materials_transmission","KHR_materials_volume","KHR_mesh_quantization"],"extensionsRequired":["EXT_meshopt_compression","EXT_texture_webp","KHR_mesh_quantization"]}